# xmcd
#
# Track frame offsets:
#	150
#	10373
#	25535
#	45810
#	62200
#	78359
#	91977
#	108334
#	129954
#	149158
#	166111
#	181300
#	198033
#	215971
#	237622
#	253634
#	270363
#	287631
#	305475
#	319401
#
# Disc length: 4507 seconds
#
# Revision: 0
# Processed by: cddbd v1.5.2PL0 Copyright (c) Steve Scherf et al.
# Submitted via: EZCDAudioConverter 4.0.9.1
#
DISCID=17119914
DTITLE=容祖儿 - 新的世界
DYEAR=1900
DGENRE=流行
TTITLE0=新的世界
TTITLE1=不死的真爱
TTITLE2=长话短说
TTITLE3=去火星恋爱
TTITLE4=还未
TTITLE5=好事多为
TTITLE6=罪魁
TTITLE7=越唱越强
TTITLE8=天之骄女
TTITLE9=损女
TTITLE10=混血儿
TTITLE11=乱
TTITLE12=乱唱歌
TTITLE13=越唱越强（国）
TTITLE14=你我她
TTITLE15=分身术
TTITLE16=身骄肉贵
TTITLE17=烟霞
TTITLE18=挥着翅膀的女孩
TTITLE19=心淡
EXTD=
EXTT0=
EXTT1=
EXTT2=
EXTT3=
EXTT4=
EXTT5=
EXTT6=
EXTT7=
EXTT8=
EXTT9=
EXTT10=
EXTT11=
EXTT12=
EXTT13=
EXTT14=
EXTT15=
EXTT16=
EXTT17=
EXTT18=
EXTT19=
PLAYORDER=
